<svg id="Layer_3" height="512" viewBox="0 0 64 64" width="512" xmlns="http://www.w3.org/2000/svg" data-name="Layer 3"><path d="m24 24-22-22h60l-22 22z" fill="#aa2b24"/><circle cx="32" cy="45" fill="#f3a845" r="17"/><path d="m32 28a16.9 16.9 0 0 1 10 3.274v-7.274h-20v7.274a16.9 16.9 0 0 1 10-3.274z" fill="#ccc"/><circle cx="32" cy="45" fill="#eecc61" r="11"/><path d="m32 34a10.992 10.992 0 0 0 -9.213 17h12.213a3 3 0 0 0 3-3v-12.213a10.945 10.945 0 0 0 -6-1.787z" fill="#f1d681"/><path d="m15 2 17 21.999 17-21.999z" fill="#d24034"/><path d="m21.182 10 10.818 13.999 10.818-13.999z" fill="#fff"/><g fill="#ed9135"><path d="m32 56c-.338 0-.67-.021-1-.05v6c.333.019.662.05 1 .05s.667-.031 1-.05v-6c-.33.029-.662.05-1 .05z"/><path d="m21 45c0-.338.021-.67.05-1h-6c-.019.333-.05.662-.05 1s.031.667.05 1h6c-.029-.33-.05-.662-.05-1z"/><path d="m32 34c.338 0 .67.021 1 .05v-6c-.333-.019-.662-.05-1-.05s-.667.031-1 .05v6c.33-.029.662-.05 1-.05z"/><path d="m48.95 44h-6c.029.33.05.662.05 1s-.021.67-.05 1h6c.019-.333.05-.662.05-1s-.031-.667-.05-1z"/></g><path d="m33 50v-11a1 1 0 0 0 -1.707-.707l-3 3 1.414 1.414 1.293-1.293v8.586h-2v2h6v-2z" fill="#f3a845"/></svg>